<?xml version="1.0" encoding="utf-8" standalone="no"?>
<!DOCTYPE svg PUBLIC "-//W3C//DTD SVG 1.1//EN"
  "http://www.w3.org/Graphics/SVG/1.1/DTD/svg11.dtd">
<svg xmlns:xlink="http://www.w3.org/1999/xlink" width="712.553819pt" height="457.774623pt" viewBox="0 0 712.553819 457.774623" xmlns="http://www.w3.org/2000/svg" version="1.1">
 <metadata>
  <rdf:RDF xmlns:dc="http://purl.org/dc/elements/1.1/" xmlns:cc="http://creativecommons.org/ns#" xmlns:rdf="http://www.w3.org/1999/02/22-rdf-syntax-ns#">
   <cc:Work>
    <dc:type rdf:resource="http://purl.org/dc/dcmitype/StillImage"/>
    <dc:date>2026-04-30T21:24:11.473571</dc:date>
    <dc:format>image/svg+xml</dc:format>
    <dc:creator>
     <cc:Agent>
      <dc:title>Matplotlib v3.10.9, https://matplotlib.org/</dc:title>
     </cc:Agent>
    </dc:creator>
   </cc:Work>
  </rdf:RDF>
 </metadata>
 <defs>
  <style type="text/css">*{stroke-linejoin: round; stroke-linecap: butt}</style>
 </defs>
 <g id="figure_1">
  <g id="patch_1">
   <path d="M -0 457.774623
L 712.553819 457.774623
L 712.553819 0
L -0 0
z
" style="fill: #ffffff"/>
  </g>
  <g id="axes_1">
   <g id="patch_2">
    <path d="M 56.565 411.508061
L 705.353819 411.508061
L 705.353819 53.268836
L 56.565 53.268836
z
" style="fill: #ffffff"/>
   </g>
   <g id="matplotlib.axis_1">
    <g id="xtick_1">
     <g id="line2d_1">
      <path d="M 163.216457 411.508061
L 163.216457 53.268836
" clip-path="url(#p59ad2b8c87)" style="fill: none; stroke-dasharray: 0.8,1.32; stroke-dashoffset: 0; stroke: #b0b0b0; stroke-opacity: 0.5; stroke-width: 0.8"/>
     </g>
     <g id="line2d_2">
      <defs>
       <path id="m8013f06490" d="M 0 0
L 0 3.5
" style="stroke: #000000; stroke-width: 0.8"/>
      </defs>
      <g>
       <use xlink:href="#m8013f06490" x="163.216457" y="411.508061" style="stroke: #000000; stroke-width: 0.8"/>
      </g>
     </g>
     <g id="text_1">
      <!-- $\mathdefault{10^{4}}$ -->
      <g transform="translate(151.776457 428.38603) scale(0.13 -0.13)">
       <defs>
        <path id="DejaVuSans-31" d="M 794 531
L 1825 531
L 1825 4091
L 703 3866
L 703 4441
L 1819 4666
L 2450 4666
L 2450 531
L 3481 531
L 3481 0
L 794 0
L 794 531
z
" transform="scale(0.015625)"/>
        <path id="DejaVuSans-30" d="M 2034 4250
Q 1547 4250 1301 3770
Q 1056 3291 1056 2328
Q 1056 1369 1301 889
Q 1547 409 2034 409
Q 2525 409 2770 889
Q 3016 1369 3016 2328
Q 3016 3291 2770 3770
Q 2525 4250 2034 4250
z
M 2034 4750
Q 2819 4750 3233 4129
Q 3647 3509 3647 2328
Q 3647 1150 3233 529
Q 2819 -91 2034 -91
Q 1250 -91 836 529
Q 422 1150 422 2328
Q 422 3509 836 4129
Q 1250 4750 2034 4750
z
" transform="scale(0.015625)"/>
        <path id="DejaVuSans-34" d="M 2419 4116
L 825 1625
L 2419 1625
L 2419 4116
z
M 2253 4666
L 3047 4666
L 3047 1625
L 3713 1625
L 3713 1100
L 3047 1100
L 3047 0
L 2419 0
L 2419 1100
L 313 1100
L 313 1709
L 2253 4666
z
" transform="scale(0.015625)"/>
       </defs>
       <use xlink:href="#DejaVuSans-31" transform="translate(0 0.684375)"/>
       <use xlink:href="#DejaVuSans-30" transform="translate(63.623047 0.684375)"/>
       <use xlink:href="#DejaVuSans-34" transform="translate(128.203125 38.965625) scale(0.7)"/>
      </g>
     </g>
    </g>
    <g id="xtick_2">
     <g id="line2d_3">
      <path d="M 419.539938 411.508061
L 419.539938 53.268836
" clip-path="url(#p59ad2b8c87)" style="fill: none; stroke-dasharray: 0.8,1.32; stroke-dashoffset: 0; stroke: #b0b0b0; stroke-opacity: 0.5; stroke-width: 0.8"/>
     </g>
     <g id="line2d_4">
      <g>
       <use xlink:href="#m8013f06490" x="419.539938" y="411.508061" style="stroke: #000000; stroke-width: 0.8"/>
      </g>
     </g>
     <g id="text_2">
      <!-- $\mathdefault{10^{5}}$ -->
      <g transform="translate(408.099938 428.38603) scale(0.13 -0.13)">
       <defs>
        <path id="DejaVuSans-35" d="M 691 4666
L 3169 4666
L 3169 4134
L 1269 4134
L 1269 2991
Q 1406 3038 1543 3061
Q 1681 3084 1819 3084
Q 2600 3084 3056 2656
Q 3513 2228 3513 1497
Q 3513 744 3044 326
Q 2575 -91 1722 -91
Q 1428 -91 1123 -41
Q 819 9 494 109
L 494 744
Q 775 591 1075 516
Q 1375 441 1709 441
Q 2250 441 2565 725
Q 2881 1009 2881 1497
Q 2881 1984 2565 2268
Q 2250 2553 1709 2553
Q 1456 2553 1204 2497
Q 953 2441 691 2322
L 691 4666
z
" transform="scale(0.015625)"/>
       </defs>
       <use xlink:href="#DejaVuSans-31" transform="translate(0 0.684375)"/>
       <use xlink:href="#DejaVuSans-30" transform="translate(63.623047 0.684375)"/>
       <use xlink:href="#DejaVuSans-35" transform="translate(128.203125 38.965625) scale(0.7)"/>
      </g>
     </g>
    </g>
    <g id="xtick_3">
     <g id="line2d_5">
      <path d="M 675.863418 411.508061
L 675.863418 53.268836
" clip-path="url(#p59ad2b8c87)" style="fill: none; stroke-dasharray: 0.8,1.32; stroke-dashoffset: 0; stroke: #b0b0b0; stroke-opacity: 0.5; stroke-width: 0.8"/>
     </g>
     <g id="line2d_6">
      <g>
       <use xlink:href="#m8013f06490" x="675.863418" y="411.508061" style="stroke: #000000; stroke-width: 0.8"/>
      </g>
     </g>
     <g id="text_3">
      <!-- $\mathdefault{10^{6}}$ -->
      <g transform="translate(664.423418 428.38603) scale(0.13 -0.13)">
       <defs>
        <path id="DejaVuSans-36" d="M 2113 2584
Q 1688 2584 1439 2293
Q 1191 2003 1191 1497
Q 1191 994 1439 701
Q 1688 409 2113 409
Q 2538 409 2786 701
Q 3034 994 3034 1497
Q 3034 2003 2786 2293
Q 2538 2584 2113 2584
z
M 3366 4563
L 3366 3988
Q 3128 4100 2886 4159
Q 2644 4219 2406 4219
Q 1781 4219 1451 3797
Q 1122 3375 1075 2522
Q 1259 2794 1537 2939
Q 1816 3084 2150 3084
Q 2853 3084 3261 2657
Q 3669 2231 3669 1497
Q 3669 778 3244 343
Q 2819 -91 2113 -91
Q 1303 -91 875 529
Q 447 1150 447 2328
Q 447 3434 972 4092
Q 1497 4750 2381 4750
Q 2619 4750 2861 4703
Q 3103 4656 3366 4563
z
" transform="scale(0.015625)"/>
       </defs>
       <use xlink:href="#DejaVuSans-31" transform="translate(0 0.765625)"/>
       <use xlink:href="#DejaVuSans-30" transform="translate(63.623047 0.765625)"/>
       <use xlink:href="#DejaVuSans-36" transform="translate(128.203125 39.046875) scale(0.7)"/>
      </g>
     </g>
    </g>
    <g id="xtick_4">
     <g id="line2d_7">
      <path d="M 61.215089 411.508061
L 61.215089 53.268836
" clip-path="url(#p59ad2b8c87)" style="fill: none; stroke-dasharray: 0.8,1.32; stroke-dashoffset: 0; stroke: #b0b0b0; stroke-opacity: 0.5; stroke-width: 0.8"/>
     </g>
     <g id="line2d_8">
      <defs>
       <path id="m03f615c2da" d="M 0 0
L 0 2
" style="stroke: #000000; stroke-width: 0.6"/>
      </defs>
      <g>
       <use xlink:href="#m03f615c2da" x="61.215089" y="411.508061" style="stroke: #000000; stroke-width: 0.6"/>
      </g>
     </g>
    </g>
    <g id="xtick_5">
     <g id="line2d_9">
      <path d="M 86.055401 411.508061
L 86.055401 53.268836
" clip-path="url(#p59ad2b8c87)" style="fill: none; stroke-dasharray: 0.8,1.32; stroke-dashoffset: 0; stroke: #b0b0b0; stroke-opacity: 0.5; stroke-width: 0.8"/>
     </g>
     <g id="line2d_10">
      <g>
       <use xlink:href="#m03f615c2da" x="86.055401" y="411.508061" style="stroke: #000000; stroke-width: 0.6"/>
      </g>
     </g>
    </g>
    <g id="xtick_6">
     <g id="line2d_11">
      <path d="M 106.351413 411.508061
L 106.351413 53.268836
" clip-path="url(#p59ad2b8c87)" style="fill: none; stroke-dasharray: 0.8,1.32; stroke-dashoffset: 0; stroke: #b0b0b0; stroke-opacity: 0.5; stroke-width: 0.8"/>
     </g>
     <g id="line2d_12">
      <g>
       <use xlink:href="#m03f615c2da" x="106.351413" y="411.508061" style="stroke: #000000; stroke-width: 0.6"/>
      </g>
     </g>
    </g>
    <g id="xtick_7">
     <g id="line2d_13">
      <path d="M 123.511448 411.508061
L 123.511448 53.268836
" clip-path="url(#p59ad2b8c87)" style="fill: none; stroke-dasharray: 0.8,1.32; stroke-dashoffset: 0; stroke: #b0b0b0; stroke-opacity: 0.5; stroke-width: 0.8"/>
     </g>
     <g id="line2d_14">
      <g>
       <use xlink:href="#m03f615c2da" x="123.511448" y="411.508061" style="stroke: #000000; stroke-width: 0.6"/>
      </g>
     </g>
    </g>
    <g id="xtick_8">
     <g id="line2d_15">
      <path d="M 138.376145 411.508061
L 138.376145 53.268836
" clip-path="url(#p59ad2b8c87)" style="fill: none; stroke-dasharray: 0.8,1.32; stroke-dashoffset: 0; stroke: #b0b0b0; stroke-opacity: 0.5; stroke-width: 0.8"/>
     </g>
     <g id="line2d_16">
      <g>
       <use xlink:href="#m03f615c2da" x="138.376145" y="411.508061" style="stroke: #000000; stroke-width: 0.6"/>
      </g>
     </g>
    </g>
    <g id="xtick_9">
     <g id="line2d_17">
      <path d="M 151.487738 411.508061
L 151.487738 53.268836
" clip-path="url(#p59ad2b8c87)" style="fill: none; stroke-dasharray: 0.8,1.32; stroke-dashoffset: 0; stroke: #b0b0b0; stroke-opacity: 0.5; stroke-width: 0.8"/>
     </g>
     <g id="line2d_18">
      <g>
       <use xlink:href="#m03f615c2da" x="151.487738" y="411.508061" style="stroke: #000000; stroke-width: 0.6"/>
      </g>
     </g>
    </g>
    <g id="xtick_10">
     <g id="line2d_19">
      <path d="M 240.377513 411.508061
L 240.377513 53.268836
" clip-path="url(#p59ad2b8c87)" style="fill: none; stroke-dasharray: 0.8,1.32; stroke-dashoffset: 0; stroke: #b0b0b0; stroke-opacity: 0.5; stroke-width: 0.8"/>
     </g>
     <g id="line2d_20">
      <g>
       <use xlink:href="#m03f615c2da" x="240.377513" y="411.508061" style="stroke: #000000; stroke-width: 0.6"/>
      </g>
     </g>
    </g>
    <g id="xtick_11">
     <g id="line2d_21">
      <path d="M 285.513838 411.508061
L 285.513838 53.268836
" clip-path="url(#p59ad2b8c87)" style="fill: none; stroke-dasharray: 0.8,1.32; stroke-dashoffset: 0; stroke: #b0b0b0; stroke-opacity: 0.5; stroke-width: 0.8"/>
     </g>
     <g id="line2d_22">
      <g>
       <use xlink:href="#m03f615c2da" x="285.513838" y="411.508061" style="stroke: #000000; stroke-width: 0.6"/>
      </g>
     </g>
    </g>
    <g id="xtick_12">
     <g id="line2d_23">
      <path d="M 317.53857 411.508061
L 317.53857 53.268836
" clip-path="url(#p59ad2b8c87)" style="fill: none; stroke-dasharray: 0.8,1.32; stroke-dashoffset: 0; stroke: #b0b0b0; stroke-opacity: 0.5; stroke-width: 0.8"/>
     </g>
     <g id="line2d_24">
      <g>
       <use xlink:href="#m03f615c2da" x="317.53857" y="411.508061" style="stroke: #000000; stroke-width: 0.6"/>
      </g>
     </g>
    </g>
    <g id="xtick_13">
     <g id="line2d_25">
      <path d="M 342.378882 411.508061
L 342.378882 53.268836
" clip-path="url(#p59ad2b8c87)" style="fill: none; stroke-dasharray: 0.8,1.32; stroke-dashoffset: 0; stroke: #b0b0b0; stroke-opacity: 0.5; stroke-width: 0.8"/>
     </g>
     <g id="line2d_26">
      <g>
       <use xlink:href="#m03f615c2da" x="342.378882" y="411.508061" style="stroke: #000000; stroke-width: 0.6"/>
      </g>
     </g>
    </g>
    <g id="xtick_14">
     <g id="line2d_27">
      <path d="M 362.674894 411.508061
L 362.674894 53.268836
" clip-path="url(#p59ad2b8c87)" style="fill: none; stroke-dasharray: 0.8,1.32; stroke-dashoffset: 0; stroke: #b0b0b0; stroke-opacity: 0.5; stroke-width: 0.8"/>
     </g>
     <g id="line2d_28">
      <g>
       <use xlink:href="#m03f615c2da" x="362.674894" y="411.508061" style="stroke: #000000; stroke-width: 0.6"/>
      </g>
     </g>
    </g>
    <g id="xtick_15">
     <g id="line2d_29">
      <path d="M 379.834928 411.508061
L 379.834928 53.268836
" clip-path="url(#p59ad2b8c87)" style="fill: none; stroke-dasharray: 0.8,1.32; stroke-dashoffset: 0; stroke: #b0b0b0; stroke-opacity: 0.5; stroke-width: 0.8"/>
     </g>
     <g id="line2d_30">
      <g>
       <use xlink:href="#m03f615c2da" x="379.834928" y="411.508061" style="stroke: #000000; stroke-width: 0.6"/>
      </g>
     </g>
    </g>
    <g id="xtick_16">
     <g id="line2d_31">
      <path d="M 394.699626 411.508061
L 394.699626 53.268836
" clip-path="url(#p59ad2b8c87)" style="fill: none; stroke-dasharray: 0.8,1.32; stroke-dashoffset: 0; stroke: #b0b0b0; stroke-opacity: 0.5; stroke-width: 0.8"/>
     </g>
     <g id="line2d_32">
      <g>
       <use xlink:href="#m03f615c2da" x="394.699626" y="411.508061" style="stroke: #000000; stroke-width: 0.6"/>
      </g>
     </g>
    </g>
    <g id="xtick_17">
     <g id="line2d_33">
      <path d="M 407.811219 411.508061
L 407.811219 53.268836
" clip-path="url(#p59ad2b8c87)" style="fill: none; stroke-dasharray: 0.8,1.32; stroke-dashoffset: 0; stroke: #b0b0b0; stroke-opacity: 0.5; stroke-width: 0.8"/>
     </g>
     <g id="line2d_34">
      <g>
       <use xlink:href="#m03f615c2da" x="407.811219" y="411.508061" style="stroke: #000000; stroke-width: 0.6"/>
      </g>
     </g>
    </g>
    <g id="xtick_18">
     <g id="line2d_35">
      <path d="M 496.700994 411.508061
L 496.700994 53.268836
" clip-path="url(#p59ad2b8c87)" style="fill: none; stroke-dasharray: 0.8,1.32; stroke-dashoffset: 0; stroke: #b0b0b0; stroke-opacity: 0.5; stroke-width: 0.8"/>
     </g>
     <g id="line2d_36">
      <g>
       <use xlink:href="#m03f615c2da" x="496.700994" y="411.508061" style="stroke: #000000; stroke-width: 0.6"/>
      </g>
     </g>
    </g>
    <g id="xtick_19">
     <g id="line2d_37">
      <path d="M 541.837319 411.508061
L 541.837319 53.268836
" clip-path="url(#p59ad2b8c87)" style="fill: none; stroke-dasharray: 0.8,1.32; stroke-dashoffset: 0; stroke: #b0b0b0; stroke-opacity: 0.5; stroke-width: 0.8"/>
     </g>
     <g id="line2d_38">
      <g>
       <use xlink:href="#m03f615c2da" x="541.837319" y="411.508061" style="stroke: #000000; stroke-width: 0.6"/>
      </g>
     </g>
    </g>
    <g id="xtick_20">
     <g id="line2d_39">
      <path d="M 573.86205 411.508061
L 573.86205 53.268836
" clip-path="url(#p59ad2b8c87)" style="fill: none; stroke-dasharray: 0.8,1.32; stroke-dashoffset: 0; stroke: #b0b0b0; stroke-opacity: 0.5; stroke-width: 0.8"/>
     </g>
     <g id="line2d_40">
      <g>
       <use xlink:href="#m03f615c2da" x="573.86205" y="411.508061" style="stroke: #000000; stroke-width: 0.6"/>
      </g>
     </g>
    </g>
    <g id="xtick_21">
     <g id="line2d_41">
      <path d="M 598.702362 411.508061
L 598.702362 53.268836
" clip-path="url(#p59ad2b8c87)" style="fill: none; stroke-dasharray: 0.8,1.32; stroke-dashoffset: 0; stroke: #b0b0b0; stroke-opacity: 0.5; stroke-width: 0.8"/>
     </g>
     <g id="line2d_42">
      <g>
       <use xlink:href="#m03f615c2da" x="598.702362" y="411.508061" style="stroke: #000000; stroke-width: 0.6"/>
      </g>
     </g>
    </g>
    <g id="xtick_22">
     <g id="line2d_43">
      <path d="M 618.998375 411.508061
L 618.998375 53.268836
" clip-path="url(#p59ad2b8c87)" style="fill: none; stroke-dasharray: 0.8,1.32; stroke-dashoffset: 0; stroke: #b0b0b0; stroke-opacity: 0.5; stroke-width: 0.8"/>
     </g>
     <g id="line2d_44">
      <g>
       <use xlink:href="#m03f615c2da" x="618.998375" y="411.508061" style="stroke: #000000; stroke-width: 0.6"/>
      </g>
     </g>
    </g>
    <g id="xtick_23">
     <g id="line2d_45">
      <path d="M 636.158409 411.508061
L 636.158409 53.268836
" clip-path="url(#p59ad2b8c87)" style="fill: none; stroke-dasharray: 0.8,1.32; stroke-dashoffset: 0; stroke: #b0b0b0; stroke-opacity: 0.5; stroke-width: 0.8"/>
     </g>
     <g id="line2d_46">
      <g>
       <use xlink:href="#m03f615c2da" x="636.158409" y="411.508061" style="stroke: #000000; stroke-width: 0.6"/>
      </g>
     </g>
    </g>
    <g id="xtick_24">
     <g id="line2d_47">
      <path d="M 651.023107 411.508061
L 651.023107 53.268836
" clip-path="url(#p59ad2b8c87)" style="fill: none; stroke-dasharray: 0.8,1.32; stroke-dashoffset: 0; stroke: #b0b0b0; stroke-opacity: 0.5; stroke-width: 0.8"/>
     </g>
     <g id="line2d_48">
      <g>
       <use xlink:href="#m03f615c2da" x="651.023107" y="411.508061" style="stroke: #000000; stroke-width: 0.6"/>
      </g>
     </g>
    </g>
    <g id="xtick_25">
     <g id="line2d_49">
      <path d="M 664.134699 411.508061
L 664.134699 53.268836
" clip-path="url(#p59ad2b8c87)" style="fill: none; stroke-dasharray: 0.8,1.32; stroke-dashoffset: 0; stroke: #b0b0b0; stroke-opacity: 0.5; stroke-width: 0.8"/>
     </g>
     <g id="line2d_50">
      <g>
       <use xlink:href="#m03f615c2da" x="664.134699" y="411.508061" style="stroke: #000000; stroke-width: 0.6"/>
      </g>
     </g>
    </g>
    <g id="text_4">
     <!-- n (subjects) -->
     <g transform="translate(333.94066 447.247123) scale(0.16 -0.16)">
      <defs>
       <path id="DejaVuSans-6e" d="M 3513 2113
L 3513 0
L 2938 0
L 2938 2094
Q 2938 2591 2744 2837
Q 2550 3084 2163 3084
Q 1697 3084 1428 2787
Q 1159 2491 1159 1978
L 1159 0
L 581 0
L 581 3500
L 1159 3500
L 1159 2956
Q 1366 3272 1645 3428
Q 1925 3584 2291 3584
Q 2894 3584 3203 3211
Q 3513 2838 3513 2113
z
" transform="scale(0.015625)"/>
       <path id="DejaVuSans-20" transform="scale(0.015625)"/>
       <path id="DejaVuSans-28" d="M 1984 4856
Q 1566 4138 1362 3434
Q 1159 2731 1159 2009
Q 1159 1288 1364 580
Q 1569 -128 1984 -844
L 1484 -844
Q 1016 -109 783 600
Q 550 1309 550 2009
Q 550 2706 781 3412
Q 1013 4119 1484 4856
L 1984 4856
z
" transform="scale(0.015625)"/>
       <path id="DejaVuSans-73" d="M 2834 3397
L 2834 2853
Q 2591 2978 2328 3040
Q 2066 3103 1784 3103
Q 1356 3103 1142 2972
Q 928 2841 928 2578
Q 928 2378 1081 2264
Q 1234 2150 1697 2047
L 1894 2003
Q 2506 1872 2764 1633
Q 3022 1394 3022 966
Q 3022 478 2636 193
Q 2250 -91 1575 -91
Q 1294 -91 989 -36
Q 684 19 347 128
L 347 722
Q 666 556 975 473
Q 1284 391 1588 391
Q 1994 391 2212 530
Q 2431 669 2431 922
Q 2431 1156 2273 1281
Q 2116 1406 1581 1522
L 1381 1569
Q 847 1681 609 1914
Q 372 2147 372 2553
Q 372 3047 722 3315
Q 1072 3584 1716 3584
Q 2034 3584 2315 3537
Q 2597 3491 2834 3397
z
" transform="scale(0.015625)"/>
       <path id="DejaVuSans-75" d="M 544 1381
L 544 3500
L 1119 3500
L 1119 1403
Q 1119 906 1312 657
Q 1506 409 1894 409
Q 2359 409 2629 706
Q 2900 1003 2900 1516
L 2900 3500
L 3475 3500
L 3475 0
L 2900 0
L 2900 538
Q 2691 219 2414 64
Q 2138 -91 1772 -91
Q 1169 -91 856 284
Q 544 659 544 1381
z
M 1991 3584
L 1991 3584
z
" transform="scale(0.015625)"/>
       <path id="DejaVuSans-62" d="M 3116 1747
Q 3116 2381 2855 2742
Q 2594 3103 2138 3103
Q 1681 3103 1420 2742
Q 1159 2381 1159 1747
Q 1159 1113 1420 752
Q 1681 391 2138 391
Q 2594 391 2855 752
Q 3116 1113 3116 1747
z
M 1159 2969
Q 1341 3281 1617 3432
Q 1894 3584 2278 3584
Q 2916 3584 3314 3078
Q 3713 2572 3713 1747
Q 3713 922 3314 415
Q 2916 -91 2278 -91
Q 1894 -91 1617 61
Q 1341 213 1159 525
L 1159 0
L 581 0
L 581 4863
L 1159 4863
L 1159 2969
z
" transform="scale(0.015625)"/>
       <path id="DejaVuSans-6a" d="M 603 3500
L 1178 3500
L 1178 -63
Q 1178 -731 923 -1031
Q 669 -1331 103 -1331
L -116 -1331
L -116 -844
L 38 -844
Q 366 -844 484 -692
Q 603 -541 603 -63
L 603 3500
z
M 603 4863
L 1178 4863
L 1178 4134
L 603 4134
L 603 4863
z
" transform="scale(0.015625)"/>
       <path id="DejaVuSans-65" d="M 3597 1894
L 3597 1613
L 953 1613
Q 991 1019 1311 708
Q 1631 397 2203 397
Q 2534 397 2845 478
Q 3156 559 3463 722
L 3463 178
Q 3153 47 2828 -22
Q 2503 -91 2169 -91
Q 1331 -91 842 396
Q 353 884 353 1716
Q 353 2575 817 3079
Q 1281 3584 2069 3584
Q 2775 3584 3186 3129
Q 3597 2675 3597 1894
z
M 3022 2063
Q 3016 2534 2758 2815
Q 2500 3097 2075 3097
Q 1594 3097 1305 2825
Q 1016 2553 972 2059
L 3022 2063
z
" transform="scale(0.015625)"/>
       <path id="DejaVuSans-63" d="M 3122 3366
L 3122 2828
Q 2878 2963 2633 3030
Q 2388 3097 2138 3097
Q 1578 3097 1268 2742
Q 959 2388 959 1747
Q 959 1106 1268 751
Q 1578 397 2138 397
Q 2388 397 2633 464
Q 2878 531 3122 666
L 3122 134
Q 2881 22 2623 -34
Q 2366 -91 2075 -91
Q 1284 -91 818 406
Q 353 903 353 1747
Q 353 2603 823 3093
Q 1294 3584 2113 3584
Q 2378 3584 2631 3529
Q 2884 3475 3122 3366
z
" transform="scale(0.015625)"/>
       <path id="DejaVuSans-74" d="M 1172 4494
L 1172 3500
L 2356 3500
L 2356 3053
L 1172 3053
L 1172 1153
Q 1172 725 1289 603
Q 1406 481 1766 481
L 2356 481
L 2356 0
L 1766 0
Q 1100 0 847 248
Q 594 497 594 1153
L 594 3053
L 172 3053
L 172 3500
L 594 3500
L 594 4494
L 1172 4494
z
" transform="scale(0.015625)"/>
       <path id="DejaVuSans-29" d="M 513 4856
L 1013 4856
Q 1481 4119 1714 3412
Q 1947 2706 1947 2009
Q 1947 1309 1714 600
Q 1481 -109 1013 -844
L 513 -844
Q 928 -128 1133 580
Q 1338 1288 1338 2009
Q 1338 2731 1133 3434
Q 928 4138 513 4856
z
" transform="scale(0.015625)"/>
      </defs>
      <use xlink:href="#DejaVuSans-6e"/>
      <use xlink:href="#DejaVuSans-20" transform="translate(63.378906 0)"/>
      <use xlink:href="#DejaVuSans-28" transform="translate(95.166016 0)"/>
      <use xlink:href="#DejaVuSans-73" transform="translate(134.179688 0)"/>
      <use xlink:href="#DejaVuSans-75" transform="translate(186.279297 0)"/>
      <use xlink:href="#DejaVuSans-62" transform="translate(249.658203 0)"/>
      <use xlink:href="#DejaVuSans-6a" transform="translate(313.134766 0)"/>
      <use xlink:href="#DejaVuSans-65" transform="translate(340.917969 0)"/>
      <use xlink:href="#DejaVuSans-63" transform="translate(402.441406 0)"/>
      <use xlink:href="#DejaVuSans-74" transform="translate(457.421875 0)"/>
      <use xlink:href="#DejaVuSans-73" transform="translate(496.630859 0)"/>
      <use xlink:href="#DejaVuSans-29" transform="translate(548.730469 0)"/>
     </g>
    </g>
   </g>
   <g id="matplotlib.axis_2">
    <g id="ytick_1">
     <g id="line2d_51">
      <path d="M 56.565 399.158907
L 705.353819 399.158907
" clip-path="url(#p59ad2b8c87)" style="fill: none; stroke-dasharray: 0.8,1.32; stroke-dashoffset: 0; stroke: #b0b0b0; stroke-opacity: 0.5; stroke-width: 0.8"/>
     </g>
     <g id="line2d_52">
      <defs>
       <path id="m9f07715d2a" d="M 0 0
L -3.5 0
" style="stroke: #000000; stroke-width: 0.8"/>
      </defs>
      <g>
       <use xlink:href="#m9f07715d2a" x="56.565" y="399.158907" style="stroke: #000000; stroke-width: 0.8"/>
      </g>
     </g>
     <g id="text_5">
      <!-- $\mathdefault{10^{0}}$ -->
      <g transform="translate(26.685 404.097892) scale(0.13 -0.13)">
       <use xlink:href="#DejaVuSans-31" transform="translate(0 0.765625)"/>
       <use xlink:href="#DejaVuSans-30" transform="translate(63.623047 0.765625)"/>
       <use xlink:href="#DejaVuSans-30" transform="translate(128.203125 39.046875) scale(0.7)"/>
      </g>
     </g>
    </g>
    <g id="ytick_2">
     <g id="line2d_53">
      <path d="M 56.565 304.107148
L 705.353819 304.107148
" clip-path="url(#p59ad2b8c87)" style="fill: none; stroke-dasharray: 0.8,1.32; stroke-dashoffset: 0; stroke: #b0b0b0; stroke-opacity: 0.5; stroke-width: 0.8"/>
     </g>
     <g id="line2d_54">
      <g>
       <use xlink:href="#m9f07715d2a" x="56.565" y="304.107148" style="stroke: #000000; stroke-width: 0.8"/>
      </g>
     </g>
     <g id="text_6">
      <!-- $\mathdefault{10^{1}}$ -->
      <g transform="translate(26.685 309.046132) scale(0.13 -0.13)">
       <use xlink:href="#DejaVuSans-31" transform="translate(0 0.684375)"/>
       <use xlink:href="#DejaVuSans-30" transform="translate(63.623047 0.684375)"/>
       <use xlink:href="#DejaVuSans-31" transform="translate(128.203125 38.965625) scale(0.7)"/>
      </g>
     </g>
    </g>
    <g id="ytick_3">
     <g id="line2d_55">
      <path d="M 56.565 209.055389
L 705.353819 209.055389
" clip-path="url(#p59ad2b8c87)" style="fill: none; stroke-dasharray: 0.8,1.32; stroke-dashoffset: 0; stroke: #b0b0b0; stroke-opacity: 0.5; stroke-width: 0.8"/>
     </g>
     <g id="line2d_56">
      <g>
       <use xlink:href="#m9f07715d2a" x="56.565" y="209.055389" style="stroke: #000000; stroke-width: 0.8"/>
      </g>
     </g>
     <g id="text_7">
      <!-- $\mathdefault{10^{2}}$ -->
      <g transform="translate(26.685 213.994373) scale(0.13 -0.13)">
       <defs>
        <path id="DejaVuSans-32" d="M 1228 531
L 3431 531
L 3431 0
L 469 0
L 469 531
Q 828 903 1448 1529
Q 2069 2156 2228 2338
Q 2531 2678 2651 2914
Q 2772 3150 2772 3378
Q 2772 3750 2511 3984
Q 2250 4219 1831 4219
Q 1534 4219 1204 4116
Q 875 4013 500 3803
L 500 4441
Q 881 4594 1212 4672
Q 1544 4750 1819 4750
Q 2544 4750 2975 4387
Q 3406 4025 3406 3419
Q 3406 3131 3298 2873
Q 3191 2616 2906 2266
Q 2828 2175 2409 1742
Q 1991 1309 1228 531
z
" transform="scale(0.015625)"/>
       </defs>
       <use xlink:href="#DejaVuSans-31" transform="translate(0 0.765625)"/>
       <use xlink:href="#DejaVuSans-30" transform="translate(63.623047 0.765625)"/>
       <use xlink:href="#DejaVuSans-32" transform="translate(128.203125 39.046875) scale(0.7)"/>
      </g>
     </g>
    </g>
    <g id="ytick_4">
     <g id="line2d_57">
      <path d="M 56.565 114.00363
L 705.353819 114.00363
" clip-path="url(#p59ad2b8c87)" style="fill: none; stroke-dasharray: 0.8,1.32; stroke-dashoffset: 0; stroke: #b0b0b0; stroke-opacity: 0.5; stroke-width: 0.8"/>
     </g>
     <g id="line2d_58">
      <g>
       <use xlink:href="#m9f07715d2a" x="56.565" y="114.00363" style="stroke: #000000; stroke-width: 0.8"/>
      </g>
     </g>
     <g id="text_8">
      <!-- $\mathdefault{10^{3}}$ -->
      <g transform="translate(26.685 118.942614) scale(0.13 -0.13)">
       <defs>
        <path id="DejaVuSans-33" d="M 2597 2516
Q 3050 2419 3304 2112
Q 3559 1806 3559 1356
Q 3559 666 3084 287
Q 2609 -91 1734 -91
Q 1441 -91 1130 -33
Q 819 25 488 141
L 488 750
Q 750 597 1062 519
Q 1375 441 1716 441
Q 2309 441 2620 675
Q 2931 909 2931 1356
Q 2931 1769 2642 2001
Q 2353 2234 1838 2234
L 1294 2234
L 1294 2753
L 1863 2753
Q 2328 2753 2575 2939
Q 2822 3125 2822 3475
Q 2822 3834 2567 4026
Q 2313 4219 1838 4219
Q 1578 4219 1281 4162
Q 984 4106 628 3988
L 628 4550
Q 988 4650 1302 4700
Q 1616 4750 1894 4750
Q 2613 4750 3031 4423
Q 3450 4097 3450 3541
Q 3450 3153 3228 2886
Q 3006 2619 2597 2516
z
" transform="scale(0.015625)"/>
       </defs>
       <use xlink:href="#DejaVuSans-31" transform="translate(0 0.765625)"/>
       <use xlink:href="#DejaVuSans-30" transform="translate(63.623047 0.765625)"/>
       <use xlink:href="#DejaVuSans-33" transform="translate(128.203125 39.046875) scale(0.7)"/>
      </g>
     </g>
    </g>
    <g id="ytick_5">
     <g id="line2d_59">
      <path d="M 56.565 408.370375
L 705.353819 408.370375
" clip-path="url(#p59ad2b8c87)" style="fill: none; stroke-dasharray: 0.8,1.32; stroke-dashoffset: 0; stroke: #b0b0b0; stroke-opacity: 0.5; stroke-width: 0.8"/>
     </g>
     <g id="line2d_60">
      <defs>
       <path id="m3dcd9bd3b8" d="M 0 0
L -2 0
" style="stroke: #000000; stroke-width: 0.6"/>
      </defs>
      <g>
       <use xlink:href="#m3dcd9bd3b8" x="56.565" y="408.370375" style="stroke: #000000; stroke-width: 0.6"/>
      </g>
     </g>
    </g>
    <g id="ytick_6">
     <g id="line2d_61">
      <path d="M 56.565 403.508237
L 705.353819 403.508237
" clip-path="url(#p59ad2b8c87)" style="fill: none; stroke-dasharray: 0.8,1.32; stroke-dashoffset: 0; stroke: #b0b0b0; stroke-opacity: 0.5; stroke-width: 0.8"/>
     </g>
     <g id="line2d_62">
      <g>
       <use xlink:href="#m3dcd9bd3b8" x="56.565" y="403.508237" style="stroke: #000000; stroke-width: 0.6"/>
      </g>
     </g>
    </g>
    <g id="ytick_7">
     <g id="line2d_63">
      <path d="M 56.565 370.545477
L 705.353819 370.545477
" clip-path="url(#p59ad2b8c87)" style="fill: none; stroke-dasharray: 0.8,1.32; stroke-dashoffset: 0; stroke: #b0b0b0; stroke-opacity: 0.5; stroke-width: 0.8"/>
     </g>
     <g id="line2d_64">
      <g>
       <use xlink:href="#m3dcd9bd3b8" x="56.565" y="370.545477" style="stroke: #000000; stroke-width: 0.6"/>
      </g>
     </g>
    </g>
    <g id="ytick_8">
     <g id="line2d_65">
      <path d="M 56.565 353.807693
L 705.353819 353.807693
" clip-path="url(#p59ad2b8c87)" style="fill: none; stroke-dasharray: 0.8,1.32; stroke-dashoffset: 0; stroke: #b0b0b0; stroke-opacity: 0.5; stroke-width: 0.8"/>
     </g>
     <g id="line2d_66">
      <g>
       <use xlink:href="#m3dcd9bd3b8" x="56.565" y="353.807693" style="stroke: #000000; stroke-width: 0.6"/>
      </g>
     </g>
    </g>
    <g id="ytick_9">
     <g id="line2d_67">
      <path d="M 56.565 341.932046
L 705.353819 341.932046
" clip-path="url(#p59ad2b8c87)" style="fill: none; stroke-dasharray: 0.8,1.32; stroke-dashoffset: 0; stroke: #b0b0b0; stroke-opacity: 0.5; stroke-width: 0.8"/>
     </g>
     <g id="line2d_68">
      <g>
       <use xlink:href="#m3dcd9bd3b8" x="56.565" y="341.932046" style="stroke: #000000; stroke-width: 0.6"/>
      </g>
     </g>
    </g>
    <g id="ytick_10">
     <g id="line2d_69">
      <path d="M 56.565 332.720579
L 705.353819 332.720579
" clip-path="url(#p59ad2b8c87)" style="fill: none; stroke-dasharray: 0.8,1.32; stroke-dashoffset: 0; stroke: #b0b0b0; stroke-opacity: 0.5; stroke-width: 0.8"/>
     </g>
     <g id="line2d_70">
      <g>
       <use xlink:href="#m3dcd9bd3b8" x="56.565" y="332.720579" style="stroke: #000000; stroke-width: 0.6"/>
      </g>
     </g>
    </g>
    <g id="ytick_11">
     <g id="line2d_71">
      <path d="M 56.565 325.194262
L 705.353819 325.194262
" clip-path="url(#p59ad2b8c87)" style="fill: none; stroke-dasharray: 0.8,1.32; stroke-dashoffset: 0; stroke: #b0b0b0; stroke-opacity: 0.5; stroke-width: 0.8"/>
     </g>
     <g id="line2d_72">
      <g>
       <use xlink:href="#m3dcd9bd3b8" x="56.565" y="325.194262" style="stroke: #000000; stroke-width: 0.6"/>
      </g>
     </g>
    </g>
    <g id="ytick_12">
     <g id="line2d_73">
      <path d="M 56.565 318.830852
L 705.353819 318.830852
" clip-path="url(#p59ad2b8c87)" style="fill: none; stroke-dasharray: 0.8,1.32; stroke-dashoffset: 0; stroke: #b0b0b0; stroke-opacity: 0.5; stroke-width: 0.8"/>
     </g>
     <g id="line2d_74">
      <g>
       <use xlink:href="#m3dcd9bd3b8" x="56.565" y="318.830852" style="stroke: #000000; stroke-width: 0.6"/>
      </g>
     </g>
    </g>
    <g id="ytick_13">
     <g id="line2d_75">
      <path d="M 56.565 313.318615
L 705.353819 313.318615
" clip-path="url(#p59ad2b8c87)" style="fill: none; stroke-dasharray: 0.8,1.32; stroke-dashoffset: 0; stroke: #b0b0b0; stroke-opacity: 0.5; stroke-width: 0.8"/>
     </g>
     <g id="line2d_76">
      <g>
       <use xlink:href="#m3dcd9bd3b8" x="56.565" y="313.318615" style="stroke: #000000; stroke-width: 0.6"/>
      </g>
     </g>
    </g>
    <g id="ytick_14">
     <g id="line2d_77">
      <path d="M 56.565 308.456478
L 705.353819 308.456478
" clip-path="url(#p59ad2b8c87)" style="fill: none; stroke-dasharray: 0.8,1.32; stroke-dashoffset: 0; stroke: #b0b0b0; stroke-opacity: 0.5; stroke-width: 0.8"/>
     </g>
     <g id="line2d_78">
      <g>
       <use xlink:href="#m3dcd9bd3b8" x="56.565" y="308.456478" style="stroke: #000000; stroke-width: 0.6"/>
      </g>
     </g>
    </g>
    <g id="ytick_15">
     <g id="line2d_79">
      <path d="M 56.565 275.493717
L 705.353819 275.493717
" clip-path="url(#p59ad2b8c87)" style="fill: none; stroke-dasharray: 0.8,1.32; stroke-dashoffset: 0; stroke: #b0b0b0; stroke-opacity: 0.5; stroke-width: 0.8"/>
     </g>
     <g id="line2d_80">
      <g>
       <use xlink:href="#m3dcd9bd3b8" x="56.565" y="275.493717" style="stroke: #000000; stroke-width: 0.6"/>
      </g>
     </g>
    </g>
    <g id="ytick_16">
     <g id="line2d_81">
      <path d="M 56.565 258.755933
L 705.353819 258.755933
" clip-path="url(#p59ad2b8c87)" style="fill: none; stroke-dasharray: 0.8,1.32; stroke-dashoffset: 0; stroke: #b0b0b0; stroke-opacity: 0.5; stroke-width: 0.8"/>
     </g>
     <g id="line2d_82">
      <g>
       <use xlink:href="#m3dcd9bd3b8" x="56.565" y="258.755933" style="stroke: #000000; stroke-width: 0.6"/>
      </g>
     </g>
    </g>
    <g id="ytick_17">
     <g id="line2d_83">
      <path d="M 56.565 246.880287
L 705.353819 246.880287
" clip-path="url(#p59ad2b8c87)" style="fill: none; stroke-dasharray: 0.8,1.32; stroke-dashoffset: 0; stroke: #b0b0b0; stroke-opacity: 0.5; stroke-width: 0.8"/>
     </g>
     <g id="line2d_84">
      <g>
       <use xlink:href="#m3dcd9bd3b8" x="56.565" y="246.880287" style="stroke: #000000; stroke-width: 0.6"/>
      </g>
     </g>
    </g>
    <g id="ytick_18">
     <g id="line2d_85">
      <path d="M 56.565 237.66882
L 705.353819 237.66882
" clip-path="url(#p59ad2b8c87)" style="fill: none; stroke-dasharray: 0.8,1.32; stroke-dashoffset: 0; stroke: #b0b0b0; stroke-opacity: 0.5; stroke-width: 0.8"/>
     </g>
     <g id="line2d_86">
      <g>
       <use xlink:href="#m3dcd9bd3b8" x="56.565" y="237.66882" style="stroke: #000000; stroke-width: 0.6"/>
      </g>
     </g>
    </g>
    <g id="ytick_19">
     <g id="line2d_87">
      <path d="M 56.565 230.142503
L 705.353819 230.142503
" clip-path="url(#p59ad2b8c87)" style="fill: none; stroke-dasharray: 0.8,1.32; stroke-dashoffset: 0; stroke: #b0b0b0; stroke-opacity: 0.5; stroke-width: 0.8"/>
     </g>
     <g id="line2d_88">
      <g>
       <use xlink:href="#m3dcd9bd3b8" x="56.565" y="230.142503" style="stroke: #000000; stroke-width: 0.6"/>
      </g>
     </g>
    </g>
    <g id="ytick_20">
     <g id="line2d_89">
      <path d="M 56.565 223.779093
L 705.353819 223.779093
" clip-path="url(#p59ad2b8c87)" style="fill: none; stroke-dasharray: 0.8,1.32; stroke-dashoffset: 0; stroke: #b0b0b0; stroke-opacity: 0.5; stroke-width: 0.8"/>
     </g>
     <g id="line2d_90">
      <g>
       <use xlink:href="#m3dcd9bd3b8" x="56.565" y="223.779093" style="stroke: #000000; stroke-width: 0.6"/>
      </g>
     </g>
    </g>
    <g id="ytick_21">
     <g id="line2d_91">
      <path d="M 56.565 218.266856
L 705.353819 218.266856
" clip-path="url(#p59ad2b8c87)" style="fill: none; stroke-dasharray: 0.8,1.32; stroke-dashoffset: 0; stroke: #b0b0b0; stroke-opacity: 0.5; stroke-width: 0.8"/>
     </g>
     <g id="line2d_92">
      <g>
       <use xlink:href="#m3dcd9bd3b8" x="56.565" y="218.266856" style="stroke: #000000; stroke-width: 0.6"/>
      </g>
     </g>
    </g>
    <g id="ytick_22">
     <g id="line2d_93">
      <path d="M 56.565 213.404719
L 705.353819 213.404719
" clip-path="url(#p59ad2b8c87)" style="fill: none; stroke-dasharray: 0.8,1.32; stroke-dashoffset: 0; stroke: #b0b0b0; stroke-opacity: 0.5; stroke-width: 0.8"/>
     </g>
     <g id="line2d_94">
      <g>
       <use xlink:href="#m3dcd9bd3b8" x="56.565" y="213.404719" style="stroke: #000000; stroke-width: 0.6"/>
      </g>
     </g>
    </g>
    <g id="ytick_23">
     <g id="line2d_95">
      <path d="M 56.565 180.441958
L 705.353819 180.441958
" clip-path="url(#p59ad2b8c87)" style="fill: none; stroke-dasharray: 0.8,1.32; stroke-dashoffset: 0; stroke: #b0b0b0; stroke-opacity: 0.5; stroke-width: 0.8"/>
     </g>
     <g id="line2d_96">
      <g>
       <use xlink:href="#m3dcd9bd3b8" x="56.565" y="180.441958" style="stroke: #000000; stroke-width: 0.6"/>
      </g>
     </g>
    </g>
    <g id="ytick_24">
     <g id="line2d_97">
      <path d="M 56.565 163.704174
L 705.353819 163.704174
" clip-path="url(#p59ad2b8c87)" style="fill: none; stroke-dasharray: 0.8,1.32; stroke-dashoffset: 0; stroke: #b0b0b0; stroke-opacity: 0.5; stroke-width: 0.8"/>
     </g>
     <g id="line2d_98">
      <g>
       <use xlink:href="#m3dcd9bd3b8" x="56.565" y="163.704174" style="stroke: #000000; stroke-width: 0.6"/>
      </g>
     </g>
    </g>
    <g id="ytick_25">
     <g id="line2d_99">
      <path d="M 56.565 151.828527
L 705.353819 151.828527
" clip-path="url(#p59ad2b8c87)" style="fill: none; stroke-dasharray: 0.8,1.32; stroke-dashoffset: 0; stroke: #b0b0b0; stroke-opacity: 0.5; stroke-width: 0.8"/>
     </g>
     <g id="line2d_100">
      <g>
       <use xlink:href="#m3dcd9bd3b8" x="56.565" y="151.828527" style="stroke: #000000; stroke-width: 0.6"/>
      </g>
     </g>
    </g>
    <g id="ytick_26">
     <g id="line2d_101">
      <path d="M 56.565 142.61706
L 705.353819 142.61706
" clip-path="url(#p59ad2b8c87)" style="fill: none; stroke-dasharray: 0.8,1.32; stroke-dashoffset: 0; stroke: #b0b0b0; stroke-opacity: 0.5; stroke-width: 0.8"/>
     </g>
     <g id="line2d_102">
      <g>
       <use xlink:href="#m3dcd9bd3b8" x="56.565" y="142.61706" style="stroke: #000000; stroke-width: 0.6"/>
      </g>
     </g>
    </g>
    <g id="ytick_27">
     <g id="line2d_103">
      <path d="M 56.565 135.090744
L 705.353819 135.090744
" clip-path="url(#p59ad2b8c87)" style="fill: none; stroke-dasharray: 0.8,1.32; stroke-dashoffset: 0; stroke: #b0b0b0; stroke-opacity: 0.5; stroke-width: 0.8"/>
     </g>
     <g id="line2d_104">
      <g>
       <use xlink:href="#m3dcd9bd3b8" x="56.565" y="135.090744" style="stroke: #000000; stroke-width: 0.6"/>
      </g>
     </g>
    </g>
    <g id="ytick_28">
     <g id="line2d_105">
      <path d="M 56.565 128.727333
L 705.353819 128.727333
" clip-path="url(#p59ad2b8c87)" style="fill: none; stroke-dasharray: 0.8,1.32; stroke-dashoffset: 0; stroke: #b0b0b0; stroke-opacity: 0.5; stroke-width: 0.8"/>
     </g>
     <g id="line2d_106">
      <g>
       <use xlink:href="#m3dcd9bd3b8" x="56.565" y="128.727333" style="stroke: #000000; stroke-width: 0.6"/>
      </g>
     </g>
    </g>
    <g id="ytick_29">
     <g id="line2d_107">
      <path d="M 56.565 123.215097
L 705.353819 123.215097
" clip-path="url(#p59ad2b8c87)" style="fill: none; stroke-dasharray: 0.8,1.32; stroke-dashoffset: 0; stroke: #b0b0b0; stroke-opacity: 0.5; stroke-width: 0.8"/>
     </g>
     <g id="line2d_108">
      <g>
       <use xlink:href="#m3dcd9bd3b8" x="56.565" y="123.215097" style="stroke: #000000; stroke-width: 0.6"/>
      </g>
     </g>
    </g>
    <g id="ytick_30">
     <g id="line2d_109">
      <path d="M 56.565 118.35296
L 705.353819 118.35296
" clip-path="url(#p59ad2b8c87)" style="fill: none; stroke-dasharray: 0.8,1.32; stroke-dashoffset: 0; stroke: #b0b0b0; stroke-opacity: 0.5; stroke-width: 0.8"/>
     </g>
     <g id="line2d_110">
      <g>
       <use xlink:href="#m3dcd9bd3b8" x="56.565" y="118.35296" style="stroke: #000000; stroke-width: 0.6"/>
      </g>
     </g>
    </g>
    <g id="ytick_31">
     <g id="line2d_111">
      <path d="M 56.565 85.390199
L 705.353819 85.390199
" clip-path="url(#p59ad2b8c87)" style="fill: none; stroke-dasharray: 0.8,1.32; stroke-dashoffset: 0; stroke: #b0b0b0; stroke-opacity: 0.5; stroke-width: 0.8"/>
     </g>
     <g id="line2d_112">
      <g>
       <use xlink:href="#m3dcd9bd3b8" x="56.565" y="85.390199" style="stroke: #000000; stroke-width: 0.6"/>
      </g>
     </g>
    </g>
    <g id="ytick_32">
     <g id="line2d_113">
      <path d="M 56.565 68.652415
L 705.353819 68.652415
" clip-path="url(#p59ad2b8c87)" style="fill: none; stroke-dasharray: 0.8,1.32; stroke-dashoffset: 0; stroke: #b0b0b0; stroke-opacity: 0.5; stroke-width: 0.8"/>
     </g>
     <g id="line2d_114">
      <g>
       <use xlink:href="#m3dcd9bd3b8" x="56.565" y="68.652415" style="stroke: #000000; stroke-width: 0.6"/>
      </g>
     </g>
    </g>
    <g id="ytick_33">
     <g id="line2d_115">
      <path d="M 56.565 56.776768
L 705.353819 56.776768
" clip-path="url(#p59ad2b8c87)" style="fill: none; stroke-dasharray: 0.8,1.32; stroke-dashoffset: 0; stroke: #b0b0b0; stroke-opacity: 0.5; stroke-width: 0.8"/>
     </g>
     <g id="line2d_116">
      <g>
       <use xlink:href="#m3dcd9bd3b8" x="56.565" y="56.776768" style="stroke: #000000; stroke-width: 0.6"/>
      </g>
     </g>
    </g>
    <g id="text_9">
     <!-- wall time (s) -->
     <g transform="translate(19.3575 281.847199) rotate(-90) scale(0.16 -0.16)">
      <defs>
       <path id="DejaVuSans-77" d="M 269 3500
L 844 3500
L 1563 769
L 2278 3500
L 2956 3500
L 3675 769
L 4391 3500
L 4966 3500
L 4050 0
L 3372 0
L 2619 2869
L 1863 0
L 1184 0
L 269 3500
z
" transform="scale(0.015625)"/>
       <path id="DejaVuSans-61" d="M 2194 1759
Q 1497 1759 1228 1600
Q 959 1441 959 1056
Q 959 750 1161 570
Q 1363 391 1709 391
Q 2188 391 2477 730
Q 2766 1069 2766 1631
L 2766 1759
L 2194 1759
z
M 3341 1997
L 3341 0
L 2766 0
L 2766 531
Q 2569 213 2275 61
Q 1981 -91 1556 -91
Q 1019 -91 701 211
Q 384 513 384 1019
Q 384 1609 779 1909
Q 1175 2209 1959 2209
L 2766 2209
L 2766 2266
Q 2766 2663 2505 2880
Q 2244 3097 1772 3097
Q 1472 3097 1187 3025
Q 903 2953 641 2809
L 641 3341
Q 956 3463 1253 3523
Q 1550 3584 1831 3584
Q 2591 3584 2966 3190
Q 3341 2797 3341 1997
z
" transform="scale(0.015625)"/>
       <path id="DejaVuSans-6c" d="M 603 4863
L 1178 4863
L 1178 0
L 603 0
L 603 4863
z
" transform="scale(0.015625)"/>
       <path id="DejaVuSans-69" d="M 603 3500
L 1178 3500
L 1178 0
L 603 0
L 603 3500
z
M 603 4863
L 1178 4863
L 1178 4134
L 603 4134
L 603 4863
z
" transform="scale(0.015625)"/>
       <path id="DejaVuSans-6d" d="M 3328 2828
Q 3544 3216 3844 3400
Q 4144 3584 4550 3584
Q 5097 3584 5394 3201
Q 5691 2819 5691 2113
L 5691 0
L 5113 0
L 5113 2094
Q 5113 2597 4934 2840
Q 4756 3084 4391 3084
Q 3944 3084 3684 2787
Q 3425 2491 3425 1978
L 3425 0
L 2847 0
L 2847 2094
Q 2847 2600 2669 2842
Q 2491 3084 2119 3084
Q 1678 3084 1418 2786
Q 1159 2488 1159 1978
L 1159 0
L 581 0
L 581 3500
L 1159 3500
L 1159 2956
Q 1356 3278 1631 3431
Q 1906 3584 2284 3584
Q 2666 3584 2933 3390
Q 3200 3197 3328 2828
z
" transform="scale(0.015625)"/>
      </defs>
      <use xlink:href="#DejaVuSans-77"/>
      <use xlink:href="#DejaVuSans-61" transform="translate(81.787109 0)"/>
      <use xlink:href="#DejaVuSans-6c" transform="translate(143.066406 0)"/>
      <use xlink:href="#DejaVuSans-6c" transform="translate(170.849609 0)"/>
      <use xlink:href="#DejaVuSans-20" transform="translate(198.632812 0)"/>
      <use xlink:href="#DejaVuSans-74" transform="translate(230.419922 0)"/>
      <use xlink:href="#DejaVuSans-69" transform="translate(269.628906 0)"/>
      <use xlink:href="#DejaVuSans-6d" transform="translate(297.412109 0)"/>
      <use xlink:href="#DejaVuSans-65" transform="translate(394.824219 0)"/>
      <use xlink:href="#DejaVuSans-20" transform="translate(456.347656 0)"/>
      <use xlink:href="#DejaVuSans-28" transform="translate(488.134766 0)"/>
      <use xlink:href="#DejaVuSans-73" transform="translate(527.148438 0)"/>
      <use xlink:href="#DejaVuSans-29" transform="translate(579.248047 0)"/>
     </g>
    </g>
   </g>
   <g id="line2d_117">
    <path d="M 86.055401 279.386905
L 163.216457 215.764244
L 265.217825 134.428713
L 342.378882 69.552437
" clip-path="url(#p59ad2b8c87)" style="fill: none; stroke: #888888; stroke-width: 3; stroke-linecap: square"/>
    <defs>
     <path id="me4512194ba" d="M 0 5.5
C 1.458617 5.5 2.857689 4.920485 3.889087 3.889087
C 4.920485 2.857689 5.5 1.458617 5.5 0
C 5.5 -1.458617 4.920485 -2.857689 3.889087 -3.889087
C 2.857689 -4.920485 1.458617 -5.5 0 -5.5
C -1.458617 -5.5 -2.857689 -4.920485 -3.889087 -3.889087
C -4.920485 -2.857689 -5.5 -1.458617 -5.5 0
C -5.5 1.458617 -4.920485 2.857689 -3.889087 3.889087
C -2.857689 4.920485 -1.458617 5.5 0 5.5
z
" style="stroke: #888888"/>
    </defs>
    <g clip-path="url(#p59ad2b8c87)">
     <use xlink:href="#me4512194ba" x="86.055401" y="279.386905" style="fill: #888888; stroke: #888888"/>
     <use xlink:href="#me4512194ba" x="163.216457" y="215.764244" style="fill: #888888; stroke: #888888"/>
     <use xlink:href="#me4512194ba" x="265.217825" y="134.428713" style="fill: #888888; stroke: #888888"/>
     <use xlink:href="#me4512194ba" x="342.378882" y="69.552437" style="fill: #888888; stroke: #888888"/>
    </g>
   </g>
   <g id="line2d_118">
    <path d="M 86.055401 395.22446
L 163.216457 377.012217
L 265.217825 352.587492
L 342.378882 332.309825
L 419.539938 312.602456
L 521.541306 282.962282
L 598.702362 257.938472
L 675.863418 229.991418
" clip-path="url(#p59ad2b8c87)" style="fill: none; stroke: #2e5c8a; stroke-width: 3.5; stroke-linecap: square"/>
    <defs>
     <path id="m1afdeed45b" d="M 0 6
C 1.591219 6 3.117479 5.367802 4.242641 4.242641
C 5.367802 3.117479 6 1.591219 6 0
C 6 -1.591219 5.367802 -3.117479 4.242641 -4.242641
C 3.117479 -5.367802 1.591219 -6 0 -6
C -1.591219 -6 -3.117479 -5.367802 -4.242641 -4.242641
C -5.367802 -3.117479 -6 -1.591219 -6 0
C -6 1.591219 -5.367802 3.117479 -4.242641 4.242641
C -3.117479 5.367802 -1.591219 6 0 6
z
" style="stroke: #2e5c8a"/>
    </defs>
    <g clip-path="url(#p59ad2b8c87)">
     <use xlink:href="#m1afdeed45b" x="86.055401" y="395.22446" style="fill: #2e5c8a; stroke: #2e5c8a"/>
     <use xlink:href="#m1afdeed45b" x="163.216457" y="377.012217" style="fill: #2e5c8a; stroke: #2e5c8a"/>
     <use xlink:href="#m1afdeed45b" x="265.217825" y="352.587492" style="fill: #2e5c8a; stroke: #2e5c8a"/>
     <use xlink:href="#m1afdeed45b" x="342.378882" y="332.309825" style="fill: #2e5c8a; stroke: #2e5c8a"/>
     <use xlink:href="#m1afdeed45b" x="419.539938" y="312.602456" style="fill: #2e5c8a; stroke: #2e5c8a"/>
     <use xlink:href="#m1afdeed45b" x="521.541306" y="282.962282" style="fill: #2e5c8a; stroke: #2e5c8a"/>
     <use xlink:href="#m1afdeed45b" x="598.702362" y="257.938472" style="fill: #2e5c8a; stroke: #2e5c8a"/>
     <use xlink:href="#m1afdeed45b" x="675.863418" y="229.991418" style="fill: #2e5c8a; stroke: #2e5c8a"/>
    </g>
   </g>
   <g id="patch_3">
    <path d="M 56.565 411.508061
L 56.565 53.268836
" style="fill: none; stroke: #000000; stroke-width: 0.8; stroke-linejoin: miter; stroke-linecap: square"/>
   </g>
   <g id="patch_4">
    <path d="M 705.353819 411.508061
L 705.353819 53.268836
" style="fill: none; stroke: #000000; stroke-width: 0.8; stroke-linejoin: miter; stroke-linecap: square"/>
   </g>
   <g id="patch_5">
    <path d="M 56.565 411.508061
L 705.353819 411.508061
" style="fill: none; stroke: #000000; stroke-width: 0.8; stroke-linejoin: miter; stroke-linecap: square"/>
   </g>
   <g id="patch_6">
    <path d="M 56.565 53.268836
L 705.353819 53.268836
" style="fill: none; stroke: #000000; stroke-width: 0.8; stroke-linejoin: miter; stroke-linecap: square"/>
   </g>
   <g id="patch_7">
    <path d="M 342.378882 24.75276
Q 342.378882 46.153192 342.378882 67.553624
" style="fill: none; stroke: #888888; stroke-width: 1.2; stroke-linecap: round"/>
   </g>
   <g id="text_10">
    <!-- 581× at n=50k -->
    <g style="fill: #333333" transform="translate(283.713413 17.837812) scale(0.14 -0.14)">
     <defs>
      <path id="DejaVuSans-Bold-35" d="M 678 4666
L 3669 4666
L 3669 3781
L 1638 3781
L 1638 3059
Q 1775 3097 1914 3117
Q 2053 3138 2203 3138
Q 3056 3138 3531 2711
Q 4006 2284 4006 1522
Q 4006 766 3489 337
Q 2972 -91 2053 -91
Q 1656 -91 1267 -14
Q 878 63 494 219
L 494 1166
Q 875 947 1217 837
Q 1559 728 1863 728
Q 2300 728 2551 942
Q 2803 1156 2803 1522
Q 2803 1891 2551 2103
Q 2300 2316 1863 2316
Q 1603 2316 1309 2248
Q 1016 2181 678 2041
L 678 4666
z
" transform="scale(0.015625)"/>
      <path id="DejaVuSans-Bold-38" d="M 2228 2088
Q 1891 2088 1709 1903
Q 1528 1719 1528 1375
Q 1528 1031 1709 848
Q 1891 666 2228 666
Q 2563 666 2741 848
Q 2919 1031 2919 1375
Q 2919 1722 2741 1905
Q 2563 2088 2228 2088
z
M 1350 2484
Q 925 2613 709 2878
Q 494 3144 494 3541
Q 494 4131 934 4440
Q 1375 4750 2228 4750
Q 3075 4750 3515 4442
Q 3956 4134 3956 3541
Q 3956 3144 3739 2878
Q 3522 2613 3097 2484
Q 3572 2353 3814 2058
Q 4056 1763 4056 1313
Q 4056 619 3595 264
Q 3134 -91 2228 -91
Q 1319 -91 855 264
Q 391 619 391 1313
Q 391 1763 633 2058
Q 875 2353 1350 2484
z
M 1631 3419
Q 1631 3141 1786 2991
Q 1941 2841 2228 2841
Q 2509 2841 2662 2991
Q 2816 3141 2816 3419
Q 2816 3697 2662 3845
Q 2509 3994 2228 3994
Q 1941 3994 1786 3844
Q 1631 3694 1631 3419
z
" transform="scale(0.015625)"/>
      <path id="DejaVuSans-Bold-31" d="M 750 831
L 1813 831
L 1813 3847
L 722 3622
L 722 4441
L 1806 4666
L 2950 4666
L 2950 831
L 4013 831
L 4013 0
L 750 0
L 750 831
z
" transform="scale(0.015625)"/>
      <path id="DejaVuSans-Bold-d7" d="M 4563 3359
L 3206 2003
L 4563 653
L 4038 128
L 2681 1478
L 1325 128
L 800 653
L 2156 2003
L 800 3359
L 1325 3884
L 2681 2528
L 4038 3884
L 4563 3359
z
" transform="scale(0.015625)"/>
      <path id="DejaVuSans-Bold-20" transform="scale(0.015625)"/>
      <path id="DejaVuSans-Bold-61" d="M 2106 1575
Q 1756 1575 1579 1456
Q 1403 1338 1403 1106
Q 1403 894 1545 773
Q 1688 653 1941 653
Q 2256 653 2472 879
Q 2688 1106 2688 1447
L 2688 1575
L 2106 1575
z
M 3816 1997
L 3816 0
L 2688 0
L 2688 519
Q 2463 200 2181 54
Q 1900 -91 1497 -91
Q 953 -91 614 226
Q 275 544 275 1050
Q 275 1666 698 1953
Q 1122 2241 2028 2241
L 2688 2241
L 2688 2328
Q 2688 2594 2478 2717
Q 2269 2841 1825 2841
Q 1466 2841 1156 2769
Q 847 2697 581 2553
L 581 3406
Q 941 3494 1303 3539
Q 1666 3584 2028 3584
Q 2975 3584 3395 3211
Q 3816 2838 3816 1997
z
" transform="scale(0.015625)"/>
      <path id="DejaVuSans-Bold-74" d="M 1759 4494
L 1759 3500
L 2913 3500
L 2913 2700
L 1759 2700
L 1759 1216
Q 1759 972 1856 886
Q 1953 800 2241 800
L 2816 800
L 2816 0
L 1856 0
Q 1194 0 917 276
Q 641 553 641 1216
L 641 2700
L 84 2700
L 84 3500
L 641 3500
L 641 4494
L 1759 4494
z
" transform="scale(0.015625)"/>
      <path id="DejaVuSans-Bold-6e" d="M 4056 2131
L 4056 0
L 2931 0
L 2931 347
L 2931 1631
Q 2931 2084 2911 2256
Q 2891 2428 2841 2509
Q 2775 2619 2662 2680
Q 2550 2741 2406 2741
Q 2056 2741 1856 2470
Q 1656 2200 1656 1722
L 1656 0
L 538 0
L 538 3500
L 1656 3500
L 1656 2988
Q 1909 3294 2193 3439
Q 2478 3584 2822 3584
Q 3428 3584 3742 3212
Q 4056 2841 4056 2131
z
" transform="scale(0.015625)"/>
      <path id="DejaVuSans-Bold-3d" d="M 678 3084
L 4684 3084
L 4684 2350
L 678 2350
L 678 3084
z
M 678 1663
L 4684 1663
L 4684 922
L 678 922
L 678 1663
z
" transform="scale(0.015625)"/>
      <path id="DejaVuSans-Bold-30" d="M 2944 2338
Q 2944 3213 2780 3570
Q 2616 3928 2228 3928
Q 1841 3928 1675 3570
Q 1509 3213 1509 2338
Q 1509 1453 1675 1090
Q 1841 728 2228 728
Q 2613 728 2778 1090
Q 2944 1453 2944 2338
z
M 4147 2328
Q 4147 1169 3647 539
Q 3147 -91 2228 -91
Q 1306 -91 806 539
Q 306 1169 306 2328
Q 306 3491 806 4120
Q 1306 4750 2228 4750
Q 3147 4750 3647 4120
Q 4147 3491 4147 2328
z
" transform="scale(0.015625)"/>
      <path id="DejaVuSans-Bold-6b" d="M 538 4863
L 1656 4863
L 1656 2216
L 2944 3500
L 4244 3500
L 2534 1894
L 4378 0
L 3022 0
L 1656 1459
L 1656 0
L 538 0
L 538 4863
z
" transform="scale(0.015625)"/>
     </defs>
     <use xlink:href="#DejaVuSans-Bold-35"/>
     <use xlink:href="#DejaVuSans-Bold-38" transform="translate(69.580078 0)"/>
     <use xlink:href="#DejaVuSans-Bold-31" transform="translate(139.160156 0)"/>
     <use xlink:href="#DejaVuSans-Bold-d7" transform="translate(208.740234 0)"/>
     <use xlink:href="#DejaVuSans-Bold-20" transform="translate(292.529297 0)"/>
     <use xlink:href="#DejaVuSans-Bold-61" transform="translate(327.34375 0)"/>
     <use xlink:href="#DejaVuSans-Bold-74" transform="translate(394.824219 0)"/>
     <use xlink:href="#DejaVuSans-Bold-20" transform="translate(442.626953 0)"/>
     <use xlink:href="#DejaVuSans-Bold-6e" transform="translate(477.441406 0)"/>
     <use xlink:href="#DejaVuSans-Bold-3d" transform="translate(548.632812 0)"/>
     <use xlink:href="#DejaVuSans-Bold-35" transform="translate(632.421875 0)"/>
     <use xlink:href="#DejaVuSans-Bold-30" transform="translate(702.001953 0)"/>
     <use xlink:href="#DejaVuSans-Bold-6b" transform="translate(771.582031 0)"/>
    </g>
   </g>
   <g id="patch_8">
    <path d="M 600.225789 286.938497
Q 637.244785 259.067135 674.263782 231.195774
" style="fill: none; stroke: #2e5c8a; stroke-width: 1.2; stroke-linecap: round"/>
   </g>
   <g id="text_11">
    <!-- n=10⁶ in 60 s -->
    <g style="fill: #2e5c8a" transform="translate(534.717549 300.779076) scale(0.14 -0.14)">
     <defs>
      <path id="DejaVuSans-Bold-2076" d="M 1422 3378
Q 1228 3378 1131 3266
Q 1034 3150 1034 2922
Q 1034 2691 1131 2578
Q 1228 2463 1422 2463
Q 1619 2463 1716 2578
Q 1813 2691 1813 2922
Q 1813 3150 1716 3266
Q 1619 3378 1422 3378
z
M 2334 4638
L 2334 4156
Q 2153 4234 1991 4272
Q 1831 4309 1678 4309
Q 1347 4309 1163 4144
Q 978 3975 947 3647
Q 1075 3731 1222 3775
Q 1369 3819 1544 3819
Q 1984 3819 2253 3584
Q 2522 3350 2522 2966
Q 2522 2544 2222 2294
Q 1922 2041 1416 2041
Q 856 2041 550 2384
Q 244 2728 244 3356
Q 244 4016 600 4381
Q 959 4750 1584 4750
Q 1781 4750 1966 4722
Q 2153 4694 2334 4638
z
" transform="scale(0.015625)"/>
      <path id="DejaVuSans-Bold-69" d="M 538 3500
L 1656 3500
L 1656 0
L 538 0
L 538 3500
z
M 538 4863
L 1656 4863
L 1656 3950
L 538 3950
L 538 4863
z
" transform="scale(0.015625)"/>
      <path id="DejaVuSans-Bold-36" d="M 2316 2303
Q 2000 2303 1842 2098
Q 1684 1894 1684 1484
Q 1684 1075 1842 870
Q 2000 666 2316 666
Q 2634 666 2792 870
Q 2950 1075 2950 1484
Q 2950 1894 2792 2098
Q 2634 2303 2316 2303
z
M 3803 4544
L 3803 3681
Q 3506 3822 3243 3889
Q 2981 3956 2731 3956
Q 2194 3956 1894 3657
Q 1594 3359 1544 2772
Q 1750 2925 1990 3001
Q 2231 3078 2516 3078
Q 3231 3078 3670 2659
Q 4109 2241 4109 1563
Q 4109 813 3618 361
Q 3128 -91 2303 -91
Q 1394 -91 895 523
Q 397 1138 397 2266
Q 397 3422 980 4083
Q 1563 4744 2578 4744
Q 2900 4744 3203 4694
Q 3506 4644 3803 4544
z
" transform="scale(0.015625)"/>
      <path id="DejaVuSans-Bold-73" d="M 3272 3391
L 3272 2541
Q 2913 2691 2578 2766
Q 2244 2841 1947 2841
Q 1628 2841 1473 2761
Q 1319 2681 1319 2516
Q 1319 2381 1436 2309
Q 1553 2238 1856 2203
L 2053 2175
Q 2913 2066 3209 1816
Q 3506 1566 3506 1031
Q 3506 472 3093 190
Q 2681 -91 1863 -91
Q 1516 -91 1145 -36
Q 775 19 384 128
L 384 978
Q 719 816 1070 734
Q 1422 653 1784 653
Q 2113 653 2278 743
Q 2444 834 2444 1013
Q 2444 1163 2330 1236
Q 2216 1309 1875 1350
L 1678 1375
Q 931 1469 631 1722
Q 331 1975 331 2491
Q 331 3047 712 3315
Q 1094 3584 1881 3584
Q 2191 3584 2531 3537
Q 2872 3491 3272 3391
z
" transform="scale(0.015625)"/>
     </defs>
     <use xlink:href="#DejaVuSans-Bold-6e"/>
     <use xlink:href="#DejaVuSans-Bold-3d" transform="translate(71.191406 0)"/>
     <use xlink:href="#DejaVuSans-Bold-31" transform="translate(154.980469 0)"/>
     <use xlink:href="#DejaVuSans-Bold-30" transform="translate(224.560547 0)"/>
     <use xlink:href="#DejaVuSans-Bold-2076" transform="translate(294.140625 0)"/>
     <use xlink:href="#DejaVuSans-Bold-20" transform="translate(337.939453 0)"/>
     <use xlink:href="#DejaVuSans-Bold-69" transform="translate(372.753906 0)"/>
     <use xlink:href="#DejaVuSans-Bold-6e" transform="translate(407.03125 0)"/>
     <use xlink:href="#DejaVuSans-Bold-20" transform="translate(478.222656 0)"/>
     <use xlink:href="#DejaVuSans-Bold-36" transform="translate(513.037109 0)"/>
     <use xlink:href="#DejaVuSans-Bold-30" transform="translate(582.617188 0)"/>
     <use xlink:href="#DejaVuSans-Bold-20" transform="translate(652.197266 0)"/>
     <use xlink:href="#DejaVuSans-Bold-73" transform="translate(687.011719 0)"/>
    </g>
   </g>
   <g id="text_12">
    <!-- Wall time vs n — synthetic 2-cause Weibull, p=58, ntree=100 -->
    <g transform="translate(149.085191 30.472117) scale(0.15 -0.15)">
     <defs>
      <path id="DejaVuSans-57" d="M 213 4666
L 850 4666
L 1831 722
L 2809 4666
L 3519 4666
L 4500 722
L 5478 4666
L 6119 4666
L 4947 0
L 4153 0
L 3169 4050
L 2175 0
L 1381 0
L 213 4666
z
" transform="scale(0.015625)"/>
      <path id="DejaVuSans-76" d="M 191 3500
L 800 3500
L 1894 563
L 2988 3500
L 3597 3500
L 2284 0
L 1503 0
L 191 3500
z
" transform="scale(0.015625)"/>
      <path id="DejaVuSans-2014" d="M 313 1978
L 6088 1978
L 6088 1528
L 313 1528
L 313 1978
z
" transform="scale(0.015625)"/>
      <path id="DejaVuSans-79" d="M 2059 -325
Q 1816 -950 1584 -1140
Q 1353 -1331 966 -1331
L 506 -1331
L 506 -850
L 844 -850
Q 1081 -850 1212 -737
Q 1344 -625 1503 -206
L 1606 56
L 191 3500
L 800 3500
L 1894 763
L 2988 3500
L 3597 3500
L 2059 -325
z
" transform="scale(0.015625)"/>
      <path id="DejaVuSans-68" d="M 3513 2113
L 3513 0
L 2938 0
L 2938 2094
Q 2938 2591 2744 2837
Q 2550 3084 2163 3084
Q 1697 3084 1428 2787
Q 1159 2491 1159 1978
L 1159 0
L 581 0
L 581 4863
L 1159 4863
L 1159 2956
Q 1366 3272 1645 3428
Q 1925 3584 2291 3584
Q 2894 3584 3203 3211
Q 3513 2838 3513 2113
z
" transform="scale(0.015625)"/>
      <path id="DejaVuSans-2d" d="M 313 2009
L 1997 2009
L 1997 1497
L 313 1497
L 313 2009
z
" transform="scale(0.015625)"/>
      <path id="DejaVuSans-2c" d="M 750 794
L 1409 794
L 1409 256
L 897 -744
L 494 -744
L 750 256
L 750 794
z
" transform="scale(0.015625)"/>
      <path id="DejaVuSans-70" d="M 1159 525
L 1159 -1331
L 581 -1331
L 581 3500
L 1159 3500
L 1159 2969
Q 1341 3281 1617 3432
Q 1894 3584 2278 3584
Q 2916 3584 3314 3078
Q 3713 2572 3713 1747
Q 3713 922 3314 415
Q 2916 -91 2278 -91
Q 1894 -91 1617 61
Q 1341 213 1159 525
z
M 3116 1747
Q 3116 2381 2855 2742
Q 2594 3103 2138 3103
Q 1681 3103 1420 2742
Q 1159 2381 1159 1747
Q 1159 1113 1420 752
Q 1681 391 2138 391
Q 2594 391 2855 752
Q 3116 1113 3116 1747
z
" transform="scale(0.015625)"/>
      <path id="DejaVuSans-3d" d="M 678 2906
L 4684 2906
L 4684 2381
L 678 2381
L 678 2906
z
M 678 1631
L 4684 1631
L 4684 1100
L 678 1100
L 678 1631
z
" transform="scale(0.015625)"/>
      <path id="DejaVuSans-38" d="M 2034 2216
Q 1584 2216 1326 1975
Q 1069 1734 1069 1313
Q 1069 891 1326 650
Q 1584 409 2034 409
Q 2484 409 2743 651
Q 3003 894 3003 1313
Q 3003 1734 2745 1975
Q 2488 2216 2034 2216
z
M 1403 2484
Q 997 2584 770 2862
Q 544 3141 544 3541
Q 544 4100 942 4425
Q 1341 4750 2034 4750
Q 2731 4750 3128 4425
Q 3525 4100 3525 3541
Q 3525 3141 3298 2862
Q 3072 2584 2669 2484
Q 3125 2378 3379 2068
Q 3634 1759 3634 1313
Q 3634 634 3220 271
Q 2806 -91 2034 -91
Q 1263 -91 848 271
Q 434 634 434 1313
Q 434 1759 690 2068
Q 947 2378 1403 2484
z
M 1172 3481
Q 1172 3119 1398 2916
Q 1625 2713 2034 2713
Q 2441 2713 2670 2916
Q 2900 3119 2900 3481
Q 2900 3844 2670 4047
Q 2441 4250 2034 4250
Q 1625 4250 1398 4047
Q 1172 3844 1172 3481
z
" transform="scale(0.015625)"/>
      <path id="DejaVuSans-72" d="M 2631 2963
Q 2534 3019 2420 3045
Q 2306 3072 2169 3072
Q 1681 3072 1420 2755
Q 1159 2438 1159 1844
L 1159 0
L 581 0
L 581 3500
L 1159 3500
L 1159 2956
Q 1341 3275 1631 3429
Q 1922 3584 2338 3584
Q 2397 3584 2469 3576
Q 2541 3569 2628 3553
L 2631 2963
z
" transform="scale(0.015625)"/>
     </defs>
     <use xlink:href="#DejaVuSans-57"/>
     <use xlink:href="#DejaVuSans-61" transform="translate(92.501953 0)"/>
     <use xlink:href="#DejaVuSans-6c" transform="translate(153.78125 0)"/>
     <use xlink:href="#DejaVuSans-6c" transform="translate(181.564453 0)"/>
     <use xlink:href="#DejaVuSans-20" transform="translate(209.347656 0)"/>
     <use xlink:href="#DejaVuSans-74" transform="translate(241.134766 0)"/>
     <use xlink:href="#DejaVuSans-69" transform="translate(280.34375 0)"/>
     <use xlink:href="#DejaVuSans-6d" transform="translate(308.126953 0)"/>
     <use xlink:href="#DejaVuSans-65" transform="translate(405.539062 0)"/>
     <use xlink:href="#DejaVuSans-20" transform="translate(467.0625 0)"/>
     <use xlink:href="#DejaVuSans-76" transform="translate(498.849609 0)"/>
     <use xlink:href="#DejaVuSans-73" transform="translate(558.029297 0)"/>
     <use xlink:href="#DejaVuSans-20" transform="translate(610.128906 0)"/>
     <use xlink:href="#DejaVuSans-6e" transform="translate(641.916016 0)"/>
     <use xlink:href="#DejaVuSans-20" transform="translate(705.294922 0)"/>
     <use xlink:href="#DejaVuSans-2014" transform="translate(737.082031 0)"/>
     <use xlink:href="#DejaVuSans-20" transform="translate(837.082031 0)"/>
     <use xlink:href="#DejaVuSans-73" transform="translate(868.869141 0)"/>
     <use xlink:href="#DejaVuSans-79" transform="translate(920.96875 0)"/>
     <use xlink:href="#DejaVuSans-6e" transform="translate(980.148438 0)"/>
     <use xlink:href="#DejaVuSans-74" transform="translate(1043.527344 0)"/>
     <use xlink:href="#DejaVuSans-68" transform="translate(1082.736328 0)"/>
     <use xlink:href="#DejaVuSans-65" transform="translate(1146.115234 0)"/>
     <use xlink:href="#DejaVuSans-74" transform="translate(1207.638672 0)"/>
     <use xlink:href="#DejaVuSans-69" transform="translate(1246.847656 0)"/>
     <use xlink:href="#DejaVuSans-63" transform="translate(1274.630859 0)"/>
     <use xlink:href="#DejaVuSans-20" transform="translate(1329.611328 0)"/>
     <use xlink:href="#DejaVuSans-32" transform="translate(1361.398438 0)"/>
     <use xlink:href="#DejaVuSans-2d" transform="translate(1425.021484 0)"/>
     <use xlink:href="#DejaVuSans-63" transform="translate(1461.105469 0)"/>
     <use xlink:href="#DejaVuSans-61" transform="translate(1516.085938 0)"/>
     <use xlink:href="#DejaVuSans-75" transform="translate(1577.365234 0)"/>
     <use xlink:href="#DejaVuSans-73" transform="translate(1640.744141 0)"/>
     <use xlink:href="#DejaVuSans-65" transform="translate(1692.84375 0)"/>
     <use xlink:href="#DejaVuSans-20" transform="translate(1754.367188 0)"/>
     <use xlink:href="#DejaVuSans-57" transform="translate(1786.154297 0)"/>
     <use xlink:href="#DejaVuSans-65" transform="translate(1879.15625 0)"/>
     <use xlink:href="#DejaVuSans-69" transform="translate(1940.679688 0)"/>
     <use xlink:href="#DejaVuSans-62" transform="translate(1968.462891 0)"/>
     <use xlink:href="#DejaVuSans-75" transform="translate(2031.939453 0)"/>
     <use xlink:href="#DejaVuSans-6c" transform="translate(2095.318359 0)"/>
     <use xlink:href="#DejaVuSans-6c" transform="translate(2123.101562 0)"/>
     <use xlink:href="#DejaVuSans-2c" transform="translate(2150.884766 0)"/>
     <use xlink:href="#DejaVuSans-20" transform="translate(2182.671875 0)"/>
     <use xlink:href="#DejaVuSans-70" transform="translate(2214.458984 0)"/>
     <use xlink:href="#DejaVuSans-3d" transform="translate(2277.935547 0)"/>
     <use xlink:href="#DejaVuSans-35" transform="translate(2361.724609 0)"/>
     <use xlink:href="#DejaVuSans-38" transform="translate(2425.347656 0)"/>
     <use xlink:href="#DejaVuSans-2c" transform="translate(2488.970703 0)"/>
     <use xlink:href="#DejaVuSans-20" transform="translate(2520.757812 0)"/>
     <use xlink:href="#DejaVuSans-6e" transform="translate(2552.544922 0)"/>
     <use xlink:href="#DejaVuSans-74" transform="translate(2615.923828 0)"/>
     <use xlink:href="#DejaVuSans-72" transform="translate(2655.132812 0)"/>
     <use xlink:href="#DejaVuSans-65" transform="translate(2693.996094 0)"/>
     <use xlink:href="#DejaVuSans-65" transform="translate(2755.519531 0)"/>
     <use xlink:href="#DejaVuSans-3d" transform="translate(2817.042969 0)"/>
     <use xlink:href="#DejaVuSans-31" transform="translate(2900.832031 0)"/>
     <use xlink:href="#DejaVuSans-30" transform="translate(2964.455078 0)"/>
     <use xlink:href="#DejaVuSans-30" transform="translate(3028.078125 0)"/>
    </g>
    <!-- i7-14700K (28 threads), n_jobs=-1 -->
    <g transform="translate(251.596128 47.268836) scale(0.15 -0.15)">
     <defs>
      <path id="DejaVuSans-37" d="M 525 4666
L 3525 4666
L 3525 4397
L 1831 0
L 1172 0
L 2766 4134
L 525 4134
L 525 4666
z
" transform="scale(0.015625)"/>
      <path id="DejaVuSans-4b" d="M 628 4666
L 1259 4666
L 1259 2694
L 3353 4666
L 4166 4666
L 1850 2491
L 4331 0
L 3500 0
L 1259 2247
L 1259 0
L 628 0
L 628 4666
z
" transform="scale(0.015625)"/>
      <path id="DejaVuSans-64" d="M 2906 2969
L 2906 4863
L 3481 4863
L 3481 0
L 2906 0
L 2906 525
Q 2725 213 2448 61
Q 2172 -91 1784 -91
Q 1150 -91 751 415
Q 353 922 353 1747
Q 353 2572 751 3078
Q 1150 3584 1784 3584
Q 2172 3584 2448 3432
Q 2725 3281 2906 2969
z
M 947 1747
Q 947 1113 1208 752
Q 1469 391 1925 391
Q 2381 391 2643 752
Q 2906 1113 2906 1747
Q 2906 2381 2643 2742
Q 2381 3103 1925 3103
Q 1469 3103 1208 2742
Q 947 2381 947 1747
z
" transform="scale(0.015625)"/>
      <path id="DejaVuSans-5f" d="M 3263 -1063
L 3263 -1509
L -63 -1509
L -63 -1063
L 3263 -1063
z
" transform="scale(0.015625)"/>
      <path id="DejaVuSans-6f" d="M 1959 3097
Q 1497 3097 1228 2736
Q 959 2375 959 1747
Q 959 1119 1226 758
Q 1494 397 1959 397
Q 2419 397 2687 759
Q 2956 1122 2956 1747
Q 2956 2369 2687 2733
Q 2419 3097 1959 3097
z
M 1959 3584
Q 2709 3584 3137 3096
Q 3566 2609 3566 1747
Q 3566 888 3137 398
Q 2709 -91 1959 -91
Q 1206 -91 779 398
Q 353 888 353 1747
Q 353 2609 779 3096
Q 1206 3584 1959 3584
z
" transform="scale(0.015625)"/>
     </defs>
     <use xlink:href="#DejaVuSans-69"/>
     <use xlink:href="#DejaVuSans-37" transform="translate(27.783203 0)"/>
     <use xlink:href="#DejaVuSans-2d" transform="translate(91.40625 0)"/>
     <use xlink:href="#DejaVuSans-31" transform="translate(127.490234 0)"/>
     <use xlink:href="#DejaVuSans-34" transform="translate(191.113281 0)"/>
     <use xlink:href="#DejaVuSans-37" transform="translate(254.736328 0)"/>
     <use xlink:href="#DejaVuSans-30" transform="translate(318.359375 0)"/>
     <use xlink:href="#DejaVuSans-30" transform="translate(381.982422 0)"/>
     <use xlink:href="#DejaVuSans-4b" transform="translate(445.605469 0)"/>
     <use xlink:href="#DejaVuSans-20" transform="translate(511.181641 0)"/>
     <use xlink:href="#DejaVuSans-28" transform="translate(542.96875 0)"/>
     <use xlink:href="#DejaVuSans-32" transform="translate(581.982422 0)"/>
     <use xlink:href="#DejaVuSans-38" transform="translate(645.605469 0)"/>
     <use xlink:href="#DejaVuSans-20" transform="translate(709.228516 0)"/>
     <use xlink:href="#DejaVuSans-74" transform="translate(741.015625 0)"/>
     <use xlink:href="#DejaVuSans-68" transform="translate(780.224609 0)"/>
     <use xlink:href="#DejaVuSans-72" transform="translate(843.603516 0)"/>
     <use xlink:href="#DejaVuSans-65" transform="translate(882.466797 0)"/>
     <use xlink:href="#DejaVuSans-61" transform="translate(943.990234 0)"/>
     <use xlink:href="#DejaVuSans-64" transform="translate(1005.269531 0)"/>
     <use xlink:href="#DejaVuSans-73" transform="translate(1068.746094 0)"/>
     <use xlink:href="#DejaVuSans-29" transform="translate(1120.845703 0)"/>
     <use xlink:href="#DejaVuSans-2c" transform="translate(1159.859375 0)"/>
     <use xlink:href="#DejaVuSans-20" transform="translate(1191.646484 0)"/>
     <use xlink:href="#DejaVuSans-6e" transform="translate(1223.433594 0)"/>
     <use xlink:href="#DejaVuSans-5f" transform="translate(1286.8125 0)"/>
     <use xlink:href="#DejaVuSans-6a" transform="translate(1336.8125 0)"/>
     <use xlink:href="#DejaVuSans-6f" transform="translate(1364.595703 0)"/>
     <use xlink:href="#DejaVuSans-62" transform="translate(1425.777344 0)"/>
     <use xlink:href="#DejaVuSans-73" transform="translate(1489.253906 0)"/>
     <use xlink:href="#DejaVuSans-3d" transform="translate(1541.353516 0)"/>
     <use xlink:href="#DejaVuSans-2d" transform="translate(1625.142578 0)"/>
     <use xlink:href="#DejaVuSans-31" transform="translate(1661.226562 0)"/>
    </g>
   </g>
   <g id="legend_1">
    <g id="patch_9">
     <path d="M 66.365 105.956961
L 353.666875 105.956961
Q 356.466875 105.956961 356.466875 103.156961
L 356.466875 63.068836
Q 356.466875 60.268836 353.666875 60.268836
L 66.365 60.268836
Q 63.565 60.268836 63.565 63.068836
L 63.565 103.156961
Q 63.565 105.956961 66.365 105.956961
z
" style="fill: #ffffff; opacity: 0.95; stroke: #cccccc; stroke-linejoin: miter"/>
    </g>
    <g id="line2d_119">
     <path d="M 69.165 71.606649
L 83.165 71.606649
L 97.165 71.606649
" style="fill: none; stroke: #888888; stroke-width: 3; stroke-linecap: square"/>
     <g>
      <use xlink:href="#me4512194ba" x="83.165" y="71.606649" style="fill: #888888; stroke: #888888"/>
     </g>
    </g>
    <g id="text_13">
     <!-- scikit-survival (low_memory=True) -->
     <g transform="translate(108.365 76.506649) scale(0.14 -0.14)">
      <defs>
       <path id="DejaVuSans-6b" d="M 581 4863
L 1159 4863
L 1159 1991
L 2875 3500
L 3609 3500
L 1753 1863
L 3688 0
L 2938 0
L 1159 1709
L 1159 0
L 581 0
L 581 4863
z
" transform="scale(0.015625)"/>
       <path id="DejaVuSans-54" d="M -19 4666
L 3928 4666
L 3928 4134
L 2272 4134
L 2272 0
L 1638 0
L 1638 4134
L -19 4134
L -19 4666
z
" transform="scale(0.015625)"/>
      </defs>
      <use xlink:href="#DejaVuSans-73"/>
      <use xlink:href="#DejaVuSans-63" transform="translate(52.099609 0)"/>
      <use xlink:href="#DejaVuSans-69" transform="translate(107.080078 0)"/>
      <use xlink:href="#DejaVuSans-6b" transform="translate(134.863281 0)"/>
      <use xlink:href="#DejaVuSans-69" transform="translate(192.773438 0)"/>
      <use xlink:href="#DejaVuSans-74" transform="translate(220.556641 0)"/>
      <use xlink:href="#DejaVuSans-2d" transform="translate(259.765625 0)"/>
      <use xlink:href="#DejaVuSans-73" transform="translate(295.849609 0)"/>
      <use xlink:href="#DejaVuSans-75" transform="translate(347.949219 0)"/>
      <use xlink:href="#DejaVuSans-72" transform="translate(411.328125 0)"/>
      <use xlink:href="#DejaVuSans-76" transform="translate(452.441406 0)"/>
      <use xlink:href="#DejaVuSans-69" transform="translate(511.621094 0)"/>
      <use xlink:href="#DejaVuSans-76" transform="translate(539.404297 0)"/>
      <use xlink:href="#DejaVuSans-61" transform="translate(598.583984 0)"/>
      <use xlink:href="#DejaVuSans-6c" transform="translate(659.863281 0)"/>
      <use xlink:href="#DejaVuSans-20" transform="translate(687.646484 0)"/>
      <use xlink:href="#DejaVuSans-28" transform="translate(719.433594 0)"/>
      <use xlink:href="#DejaVuSans-6c" transform="translate(758.447266 0)"/>
      <use xlink:href="#DejaVuSans-6f" transform="translate(786.230469 0)"/>
      <use xlink:href="#DejaVuSans-77" transform="translate(847.412109 0)"/>
      <use xlink:href="#DejaVuSans-5f" transform="translate(929.199219 0)"/>
      <use xlink:href="#DejaVuSans-6d" transform="translate(979.199219 0)"/>
      <use xlink:href="#DejaVuSans-65" transform="translate(1076.611328 0)"/>
      <use xlink:href="#DejaVuSans-6d" transform="translate(1138.134766 0)"/>
      <use xlink:href="#DejaVuSans-6f" transform="translate(1235.546875 0)"/>
      <use xlink:href="#DejaVuSans-72" transform="translate(1296.728516 0)"/>
      <use xlink:href="#DejaVuSans-79" transform="translate(1337.841797 0)"/>
      <use xlink:href="#DejaVuSans-3d" transform="translate(1397.021484 0)"/>
      <use xlink:href="#DejaVuSans-54" transform="translate(1480.810547 0)"/>
      <use xlink:href="#DejaVuSans-72" transform="translate(1527.144531 0)"/>
      <use xlink:href="#DejaVuSans-75" transform="translate(1568.257812 0)"/>
      <use xlink:href="#DejaVuSans-65" transform="translate(1631.636719 0)"/>
      <use xlink:href="#DejaVuSans-29" transform="translate(1693.160156 0)"/>
     </g>
    </g>
    <g id="line2d_120">
     <path d="M 69.165 92.545399
L 83.165 92.545399
L 97.165 92.545399
" style="fill: none; stroke: #2e5c8a; stroke-width: 3.5; stroke-linecap: square"/>
     <g>
      <use xlink:href="#m1afdeed45b" x="83.165" y="92.545399" style="fill: #2e5c8a; stroke: #2e5c8a"/>
     </g>
    </g>
    <g id="text_14">
     <!-- crforest -->
     <g transform="translate(108.365 97.445399) scale(0.14 -0.14)">
      <defs>
       <path id="DejaVuSans-66" d="M 2375 4863
L 2375 4384
L 1825 4384
Q 1516 4384 1395 4259
Q 1275 4134 1275 3809
L 1275 3500
L 2222 3500
L 2222 3053
L 1275 3053
L 1275 0
L 697 0
L 697 3053
L 147 3053
L 147 3500
L 697 3500
L 697 3744
Q 697 4328 969 4595
Q 1241 4863 1831 4863
L 2375 4863
z
" transform="scale(0.015625)"/>
      </defs>
      <use xlink:href="#DejaVuSans-63"/>
      <use xlink:href="#DejaVuSans-72" transform="translate(54.980469 0)"/>
      <use xlink:href="#DejaVuSans-66" transform="translate(96.09375 0)"/>
      <use xlink:href="#DejaVuSans-6f" transform="translate(131.298828 0)"/>
      <use xlink:href="#DejaVuSans-72" transform="translate(192.480469 0)"/>
      <use xlink:href="#DejaVuSans-65" transform="translate(231.34375 0)"/>
      <use xlink:href="#DejaVuSans-73" transform="translate(292.867188 0)"/>
      <use xlink:href="#DejaVuSans-74" transform="translate(344.966797 0)"/>
     </g>
    </g>
   </g>
  </g>
 </g>
 <defs>
  <clipPath id="p59ad2b8c87">
   <rect x="56.565" y="53.268836" width="648.788819" height="358.239225"/>
  </clipPath>
 </defs>
</svg>
